<mxfile host="app.diagrams.net" agent="Mozilla/5.0 (Windows NT 10.0; Win64; x64) AppleWebKit/537.36 (KHTML, like Gecko) Chrome/131.0.0.0 Safari/537.36" scale="1" border="0" version="25.0.3">
  <diagram id="6a731a19-8d31-9384-78a2-239565b7b9f0" name="Page-1">
    <mxGraphModel dx="410" dy="683" grid="1" gridSize="10" guides="1" tooltips="1" connect="1" arrows="1" fold="1" page="1" pageScale="1" pageWidth="827" pageHeight="1169" background="none" math="0" shadow="0">
      <root>
        <mxCell id="0" />
        <mxCell id="1" parent="0" />
        <mxCell id="gZ0V9REMa7KwAuEydJpr-143" value="&lt;font style=&quot;font-size: 16px;&quot;&gt;Table de Mixage&lt;/font&gt;" style="swimlane;childLayout=stackLayout;resizeParent=1;resizeParentMax=0;startSize=20;html=1;fontSize=9;" parent="1" vertex="1">
          <mxGeometry x="80" y="40" width="1470" height="1910" as="geometry" />
        </mxCell>
        <mxCell id="gZ0V9REMa7KwAuEydJpr-144" value="Fonctions principales" style="swimlane;startSize=20;html=1;" parent="gZ0V9REMa7KwAuEydJpr-143" vertex="1">
          <mxGeometry y="20" width="390" height="1890" as="geometry">
            <mxRectangle y="20" width="40" height="1335" as="alternateBounds" />
          </mxGeometry>
        </mxCell>
        <mxCell id="gZ0V9REMa7KwAuEydJpr-148" style="edgeStyle=orthogonalEdgeStyle;rounded=1;orthogonalLoop=1;jettySize=auto;html=1;exitX=1;exitY=0.5;exitDx=0;exitDy=0;entryX=0;entryY=0.5;entryDx=0;entryDy=0;strokeColor=#0C343D;strokeWidth=3;align=center;verticalAlign=middle;fontFamily=Helvetica;fontSize=11;fontColor=default;labelBackgroundColor=default;elbow=horizontal;startArrow=none;startFill=0;endArrow=classic;" parent="gZ0V9REMa7KwAuEydJpr-144" source="gZ0V9REMa7KwAuEydJpr-160" target="gZ0V9REMa7KwAuEydJpr-156" edge="1">
          <mxGeometry relative="1" as="geometry">
            <Array as="points">
              <mxPoint x="190" y="795" />
              <mxPoint x="190" y="955" />
            </Array>
            <mxPoint x="178.99999999999955" y="797.5" as="sourcePoint" />
          </mxGeometry>
        </mxCell>
        <mxCell id="gZ0V9REMa7KwAuEydJpr-150" style="edgeStyle=orthogonalEdgeStyle;rounded=1;orthogonalLoop=1;jettySize=auto;html=1;exitX=1;exitY=0.5;exitDx=0;exitDy=0;entryX=0;entryY=0.5;entryDx=0;entryDy=0;strokeColor=#0C343D;strokeWidth=3;align=center;verticalAlign=middle;fontFamily=Helvetica;fontSize=11;fontColor=default;labelBackgroundColor=default;elbow=horizontal;startArrow=none;startFill=0;endArrow=classic;endFill=1;" parent="gZ0V9REMa7KwAuEydJpr-144" source="gZ0V9REMa7KwAuEydJpr-160" target="gZ0V9REMa7KwAuEydJpr-154" edge="1">
          <mxGeometry relative="1" as="geometry">
            <Array as="points">
              <mxPoint x="190" y="795" />
              <mxPoint x="190" y="550" />
            </Array>
            <mxPoint x="160" y="845" as="sourcePoint" />
          </mxGeometry>
        </mxCell>
        <mxCell id="gZ0V9REMa7KwAuEydJpr-151" style="edgeStyle=orthogonalEdgeStyle;rounded=1;orthogonalLoop=1;jettySize=auto;html=1;exitX=1;exitY=0.5;exitDx=0;exitDy=0;entryX=0;entryY=0.5;entryDx=0;entryDy=0;strokeColor=#0C343D;strokeWidth=3;align=center;verticalAlign=middle;fontFamily=Helvetica;fontSize=11;fontColor=default;labelBackgroundColor=default;elbow=horizontal;startArrow=none;startFill=0;endArrow=classic;endFill=1;" parent="gZ0V9REMa7KwAuEydJpr-144" source="gZ0V9REMa7KwAuEydJpr-160" target="gZ0V9REMa7KwAuEydJpr-155" edge="1">
          <mxGeometry relative="1" as="geometry">
            <Array as="points">
              <mxPoint x="190" y="795" />
              <mxPoint x="190" y="755" />
            </Array>
            <mxPoint x="160" y="845.0000000000002" as="sourcePoint" />
          </mxGeometry>
        </mxCell>
        <mxCell id="gZ0V9REMa7KwAuEydJpr-152" style="edgeStyle=orthogonalEdgeStyle;rounded=1;orthogonalLoop=1;jettySize=auto;html=1;exitX=1;exitY=0.5;exitDx=0;exitDy=0;entryX=0;entryY=0.5;entryDx=0;entryDy=0;strokeColor=#0C343D;strokeWidth=3;align=center;verticalAlign=middle;fontFamily=Helvetica;fontSize=11;fontColor=default;labelBackgroundColor=default;elbow=horizontal;startArrow=none;startFill=0;endArrow=classic;endFill=1;" parent="gZ0V9REMa7KwAuEydJpr-144" source="gZ0V9REMa7KwAuEydJpr-160" target="gZ0V9REMa7KwAuEydJpr-159" edge="1">
          <mxGeometry relative="1" as="geometry">
            <Array as="points">
              <mxPoint x="190" y="795" />
              <mxPoint x="190" y="1525" />
            </Array>
            <mxPoint x="178.99999999999955" y="797.5" as="sourcePoint" />
          </mxGeometry>
        </mxCell>
        <mxCell id="gZ0V9REMa7KwAuEydJpr-153" style="edgeStyle=orthogonalEdgeStyle;rounded=1;orthogonalLoop=1;jettySize=auto;html=1;exitX=1;exitY=0.5;exitDx=0;exitDy=0;entryX=0;entryY=0.5;entryDx=0;entryDy=0;strokeColor=#0C343D;strokeWidth=3;align=center;verticalAlign=middle;fontFamily=Helvetica;fontSize=11;fontColor=default;labelBackgroundColor=default;elbow=horizontal;startArrow=none;startFill=0;endArrow=classic;endFill=1;" parent="gZ0V9REMa7KwAuEydJpr-144" source="gZ0V9REMa7KwAuEydJpr-160" target="gZ0V9REMa7KwAuEydJpr-157" edge="1">
          <mxGeometry relative="1" as="geometry">
            <Array as="points">
              <mxPoint x="190" y="795" />
              <mxPoint x="190" y="1372" />
            </Array>
            <mxPoint x="178.99999999999955" y="797.5" as="sourcePoint" />
          </mxGeometry>
        </mxCell>
        <mxCell id="gZ0V9REMa7KwAuEydJpr-154" value="Connecter les&lt;br&gt;instruments" style="rounded=1;fillColor=default;strokeColor=default;strokeWidth=3;fontFamily=Helvetica;html=1;gradientColor=none;fontSize=14;fontColor=default;shadow=0;glass=0;align=center;verticalAlign=middle;" parent="gZ0V9REMa7KwAuEydJpr-144" vertex="1">
          <mxGeometry x="240" y="525" width="130" height="50" as="geometry" />
        </mxCell>
        <mxCell id="gZ0V9REMa7KwAuEydJpr-155" value="Recevoir les&lt;br&gt;données" style="rounded=1;fillColor=default;strokeColor=default;strokeWidth=3;fontFamily=Helvetica;html=1;gradientColor=none;fontSize=14;fontColor=default;shadow=0;glass=0;align=center;verticalAlign=middle;" parent="gZ0V9REMa7KwAuEydJpr-144" vertex="1">
          <mxGeometry x="240" y="730" width="130" height="50" as="geometry" />
        </mxCell>
        <mxCell id="gZ0V9REMa7KwAuEydJpr-156" value="Assurer la sureté&lt;br&gt;du système" style="rounded=1;fillColor=default;strokeColor=default;strokeWidth=3;fontFamily=Helvetica;html=1;gradientColor=none;fontSize=14;fontColor=default;shadow=0;glass=0;align=center;verticalAlign=middle;" parent="gZ0V9REMa7KwAuEydJpr-144" vertex="1">
          <mxGeometry x="240" y="930" width="130" height="50" as="geometry" />
        </mxCell>
        <mxCell id="gZ0V9REMa7KwAuEydJpr-157" value="Alimenter&lt;br&gt;le système" style="rounded=1;fillColor=default;strokeColor=default;strokeWidth=3;fontFamily=Helvetica;html=1;gradientColor=none;fontSize=14;fontColor=default;shadow=0;glass=0;align=center;verticalAlign=middle;" parent="gZ0V9REMa7KwAuEydJpr-144" vertex="1">
          <mxGeometry x="240" y="1347" width="130" height="50" as="geometry" />
        </mxCell>
        <mxCell id="gZ0V9REMa7KwAuEydJpr-158" value="Mixer l&#39;audio" style="rounded=1;fillColor=default;strokeColor=default;strokeWidth=3;fontFamily=Helvetica;html=1;gradientColor=none;fontSize=14;fontColor=default;shadow=0;glass=0;align=center;verticalAlign=middle;" parent="gZ0V9REMa7KwAuEydJpr-144" vertex="1">
          <mxGeometry x="240" y="100" width="130" height="50" as="geometry" />
        </mxCell>
        <mxCell id="gZ0V9REMa7KwAuEydJpr-159" value="Jouer le&lt;br&gt;signal sonore" style="rounded=1;fillColor=default;strokeColor=default;strokeWidth=3;fontFamily=Helvetica;html=1;gradientColor=none;fontSize=14;fontColor=default;shadow=0;glass=0;align=center;verticalAlign=middle;" parent="gZ0V9REMa7KwAuEydJpr-144" vertex="1">
          <mxGeometry x="230" y="1500" width="130" height="50" as="geometry" />
        </mxCell>
        <mxCell id="gZ0V9REMa7KwAuEydJpr-160" value="&lt;span style=&quot;font-size: 14px;&quot;&gt;Contrôler les&lt;br&gt;instruments&lt;br&gt;musicaux&lt;/span&gt;" style="rounded=1;strokeWidth=3;fontFamily=Helvetica;html=1;fontSize=12;fontColor=default;strokeColor=default;glass=0;shadow=0;" parent="gZ0V9REMa7KwAuEydJpr-144" vertex="1">
          <mxGeometry x="30" y="765" width="130" height="60" as="geometry" />
        </mxCell>
        <mxCell id="gZ0V9REMa7KwAuEydJpr-175" value="Faciliter l&#39;évolutivité et la maintenance" style="rounded=1;fillColor=default;strokeColor=default;strokeWidth=3;fontFamily=Helvetica;html=1;gradientColor=none;fontSize=14;fontColor=default;shadow=0;glass=0;align=center;verticalAlign=middle;whiteSpace=wrap;" parent="gZ0V9REMa7KwAuEydJpr-144" vertex="1">
          <mxGeometry x="240" y="1245" width="130" height="50" as="geometry" />
        </mxCell>
        <mxCell id="gZ0V9REMa7KwAuEydJpr-177" style="rounded=1;orthogonalLoop=1;jettySize=auto;html=1;exitX=1;exitY=0.5;exitDx=0;exitDy=0;entryX=0;entryY=0.5;entryDx=0;entryDy=0;strokeColor=#0C343D;strokeWidth=3;align=center;verticalAlign=middle;fontFamily=Helvetica;fontSize=11;fontColor=default;labelBackgroundColor=default;elbow=horizontal;startArrow=none;startFill=0;endArrow=classic;edgeStyle=orthogonalEdgeStyle;" parent="gZ0V9REMa7KwAuEydJpr-144" source="gZ0V9REMa7KwAuEydJpr-160" target="gZ0V9REMa7KwAuEydJpr-175" edge="1">
          <mxGeometry relative="1" as="geometry">
            <Array as="points">
              <mxPoint x="190" y="795" />
              <mxPoint x="190" y="1270" />
            </Array>
            <mxPoint x="166" y="807" as="sourcePoint" />
            <mxPoint x="250" y="908" as="targetPoint" />
          </mxGeometry>
        </mxCell>
        <mxCell id="gZ0V9REMa7KwAuEydJpr-149" style="edgeStyle=orthogonalEdgeStyle;rounded=1;orthogonalLoop=1;jettySize=auto;html=1;exitX=1;exitY=0.5;exitDx=0;exitDy=0;entryX=0;entryY=0.5;entryDx=0;entryDy=0;strokeColor=#0C343D;strokeWidth=3;align=center;verticalAlign=middle;fontFamily=Helvetica;fontSize=11;fontColor=default;labelBackgroundColor=default;elbow=horizontal;startArrow=none;startFill=0;endArrow=classic;" parent="gZ0V9REMa7KwAuEydJpr-144" source="gZ0V9REMa7KwAuEydJpr-160" target="gZ0V9REMa7KwAuEydJpr-158" edge="1">
          <mxGeometry relative="1" as="geometry">
            <Array as="points">
              <mxPoint x="190" y="710" />
              <mxPoint x="190" y="125" />
            </Array>
            <mxPoint x="160" y="770" as="sourcePoint" />
          </mxGeometry>
        </mxCell>
        <mxCell id="gZ0V9REMa7KwAuEydJpr-374" value="Synchronisation" style="rounded=1;fillColor=default;strokeColor=default;strokeWidth=3;fontFamily=Helvetica;html=1;gradientColor=none;fontSize=14;fontColor=default;shadow=0;glass=0;align=center;verticalAlign=middle;" parent="gZ0V9REMa7KwAuEydJpr-144" vertex="1">
          <mxGeometry x="230" y="1669" width="130" height="50" as="geometry" />
        </mxCell>
        <mxCell id="gZ0V9REMa7KwAuEydJpr-375" style="edgeStyle=orthogonalEdgeStyle;rounded=1;orthogonalLoop=1;jettySize=auto;html=1;exitX=1;exitY=0.5;exitDx=0;exitDy=0;entryX=0;entryY=0.5;entryDx=0;entryDy=0;strokeColor=#0C343D;strokeWidth=3;align=center;verticalAlign=middle;fontFamily=Helvetica;fontSize=11;fontColor=default;labelBackgroundColor=default;elbow=horizontal;startArrow=none;startFill=0;endArrow=classic;endFill=1;" parent="gZ0V9REMa7KwAuEydJpr-144" source="gZ0V9REMa7KwAuEydJpr-160" target="gZ0V9REMa7KwAuEydJpr-374" edge="1">
          <mxGeometry relative="1" as="geometry">
            <Array as="points">
              <mxPoint x="190" y="795" />
              <mxPoint x="190" y="1694" />
            </Array>
            <mxPoint x="170" y="805" as="sourcePoint" />
            <mxPoint x="250" y="1382" as="targetPoint" />
          </mxGeometry>
        </mxCell>
        <mxCell id="gZ0V9REMa7KwAuEydJpr-145" value="Fonctions techniques et contraintes" style="swimlane;startSize=20;html=1;" parent="gZ0V9REMa7KwAuEydJpr-143" vertex="1">
          <mxGeometry x="390" y="20" width="860" height="1890" as="geometry" />
        </mxCell>
        <mxCell id="gZ0V9REMa7KwAuEydJpr-232" value="Régler le niveau&lt;br&gt;d&#39;effets appliqué" style="rounded=1;fillColor=default;strokeColor=default;strokeWidth=3;fontFamily=Helvetica;html=1;gradientColor=none;fontSize=14;fontColor=default;shadow=0;glass=0;align=center;verticalAlign=middle;" parent="gZ0V9REMa7KwAuEydJpr-145" vertex="1">
          <mxGeometry x="33.004761904761835" y="150" width="127" height="50" as="geometry" />
        </mxCell>
        <mxCell id="gZ0V9REMa7KwAuEydJpr-233" style="edgeStyle=orthogonalEdgeStyle;rounded=1;orthogonalLoop=1;jettySize=auto;html=1;exitX=1;exitY=0.5;exitDx=0;exitDy=0;strokeColor=#0C343D;strokeWidth=3;align=center;verticalAlign=middle;fontFamily=Helvetica;fontSize=11;fontColor=default;labelBackgroundColor=default;elbow=horizontal;startArrow=none;startFill=0;endArrow=none;endFill=0;" parent="gZ0V9REMa7KwAuEydJpr-145" source="gZ0V9REMa7KwAuEydJpr-234" edge="1">
          <mxGeometry relative="1" as="geometry">
            <mxPoint x="185" y="655" as="targetPoint" />
          </mxGeometry>
        </mxCell>
        <mxCell id="gZ0V9REMa7KwAuEydJpr-234" value="Recevoir un signal&lt;br&gt;numérique" style="rounded=1;fillColor=default;strokeColor=default;strokeWidth=3;fontFamily=Helvetica;html=1;gradientColor=none;fontSize=14;fontColor=default;shadow=0;glass=0;align=center;verticalAlign=middle;" parent="gZ0V9REMa7KwAuEydJpr-145" vertex="1">
          <mxGeometry x="33.004761904761835" y="525" width="127" height="50" as="geometry" />
        </mxCell>
        <mxCell id="gZ0V9REMa7KwAuEydJpr-235" style="edgeStyle=orthogonalEdgeStyle;rounded=1;orthogonalLoop=1;jettySize=auto;html=1;exitX=1;exitY=0.5;exitDx=0;exitDy=0;strokeColor=#0C343D;strokeWidth=3;align=center;verticalAlign=middle;fontFamily=Helvetica;fontSize=11;fontColor=default;labelBackgroundColor=default;elbow=horizontal;startArrow=none;startFill=0;endArrow=none;endFill=0;" parent="gZ0V9REMa7KwAuEydJpr-145" source="gZ0V9REMa7KwAuEydJpr-236" edge="1">
          <mxGeometry relative="1" as="geometry">
            <mxPoint x="205" y="655" as="targetPoint" />
            <Array as="points">
              <mxPoint x="205" y="755" />
            </Array>
          </mxGeometry>
        </mxCell>
        <mxCell id="gZ0V9REMa7KwAuEydJpr-236" value="Assurer la&lt;br&gt;communication" style="rounded=1;fillColor=default;strokeColor=default;strokeWidth=3;fontFamily=Helvetica;html=1;gradientColor=none;fontSize=14;fontColor=default;shadow=0;glass=0;align=center;verticalAlign=middle;" parent="gZ0V9REMa7KwAuEydJpr-145" vertex="1">
          <mxGeometry x="33.004761904761835" y="730" width="127" height="50" as="geometry" />
        </mxCell>
        <mxCell id="gZ0V9REMa7KwAuEydJpr-242" value="Régler le volume&lt;br style=&quot;font-size: 14px;&quot;&gt;d&#39;instruments" style="rounded=1;fillColor=default;strokeColor=default;strokeWidth=3;gradientColor=none;fontFamily=Helvetica;html=1;fontSize=14;fontColor=default;shadow=0;glass=0;align=center;verticalAlign=middle;" parent="gZ0V9REMa7KwAuEydJpr-145" vertex="1">
          <mxGeometry x="32.9816326530613" y="50" width="127" height="50" as="geometry" />
        </mxCell>
        <mxCell id="gZ0V9REMa7KwAuEydJpr-245" value="" style="edgeStyle=orthogonalEdgeStyle;rounded=1;orthogonalLoop=1;jettySize=auto;html=1;strokeColor=#0C343D;strokeWidth=3;align=center;verticalAlign=middle;fontFamily=Helvetica;fontSize=11;fontColor=default;labelBackgroundColor=default;elbow=horizontal;startArrow=none;startFill=0;endArrow=classic;" parent="gZ0V9REMa7KwAuEydJpr-145" source="gZ0V9REMa7KwAuEydJpr-248" target="gZ0V9REMa7KwAuEydJpr-263" edge="1">
          <mxGeometry relative="1" as="geometry" />
        </mxCell>
        <mxCell id="gZ0V9REMa7KwAuEydJpr-246" style="edgeStyle=orthogonalEdgeStyle;rounded=1;orthogonalLoop=1;jettySize=auto;html=1;exitX=1;exitY=0.5;exitDx=0;exitDy=0;entryX=0;entryY=0.5;entryDx=0;entryDy=0;strokeColor=#0C343D;strokeWidth=3;align=center;verticalAlign=middle;fontFamily=Helvetica;fontSize=11;fontColor=default;labelBackgroundColor=default;elbow=horizontal;startArrow=none;startFill=0;endArrow=classic;" parent="gZ0V9REMa7KwAuEydJpr-145" source="gZ0V9REMa7KwAuEydJpr-248" target="gZ0V9REMa7KwAuEydJpr-265" edge="1">
          <mxGeometry relative="1" as="geometry" />
        </mxCell>
        <mxCell id="gZ0V9REMa7KwAuEydJpr-247" style="edgeStyle=orthogonalEdgeStyle;rounded=1;orthogonalLoop=1;jettySize=auto;html=1;exitX=1;exitY=0.5;exitDx=0;exitDy=0;entryX=0;entryY=0.5;entryDx=0;entryDy=0;strokeColor=#0C343D;strokeWidth=3;align=center;verticalAlign=middle;fontFamily=Helvetica;fontSize=11;fontColor=default;labelBackgroundColor=default;elbow=horizontal;startArrow=none;startFill=0;endArrow=classic;" parent="gZ0V9REMa7KwAuEydJpr-145" source="gZ0V9REMa7KwAuEydJpr-248" target="gZ0V9REMa7KwAuEydJpr-267" edge="1">
          <mxGeometry relative="1" as="geometry" />
        </mxCell>
        <mxCell id="gZ0V9REMa7KwAuEydJpr-248" value="Respecter&lt;br&gt;les normes" style="rounded=1;fillColor=default;strokeColor=default;strokeWidth=3;fontFamily=Helvetica;html=1;gradientColor=none;fontSize=14;fontColor=default;shadow=0;glass=0;align=center;verticalAlign=middle;" parent="gZ0V9REMa7KwAuEydJpr-145" vertex="1">
          <mxGeometry x="203.00850340136003" y="930" width="127" height="50" as="geometry" />
        </mxCell>
        <mxCell id="gZ0V9REMa7KwAuEydJpr-249" value="" style="edgeStyle=orthogonalEdgeStyle;rounded=1;orthogonalLoop=1;jettySize=auto;html=1;strokeColor=#0C343D;strokeWidth=3;align=center;verticalAlign=middle;fontFamily=Helvetica;fontSize=11;fontColor=default;labelBackgroundColor=default;elbow=horizontal;startArrow=none;startFill=0;endArrow=classic;" parent="gZ0V9REMa7KwAuEydJpr-145" source="gZ0V9REMa7KwAuEydJpr-250" target="gZ0V9REMa7KwAuEydJpr-255" edge="1">
          <mxGeometry relative="1" as="geometry" />
        </mxCell>
        <mxCell id="gZ0V9REMa7KwAuEydJpr-250" value="Mesurer la&lt;br&gt;fréquence" style="rounded=1;fillColor=default;strokeColor=default;strokeWidth=3;fontFamily=Helvetica;html=1;gradientColor=none;fontSize=14;fontColor=default;shadow=0;glass=0;align=center;verticalAlign=middle;" parent="gZ0V9REMa7KwAuEydJpr-145" vertex="1">
          <mxGeometry x="542.9985034013607" y="830" width="127" height="50" as="geometry" />
        </mxCell>
        <mxCell id="gZ0V9REMa7KwAuEydJpr-251" value="" style="edgeStyle=orthogonalEdgeStyle;rounded=1;orthogonalLoop=1;jettySize=auto;html=1;strokeColor=#0C343D;strokeWidth=3;align=center;verticalAlign=middle;fontFamily=Helvetica;fontSize=11;fontColor=default;labelBackgroundColor=default;elbow=horizontal;startArrow=none;startFill=0;endArrow=classic;" parent="gZ0V9REMa7KwAuEydJpr-145" source="gZ0V9REMa7KwAuEydJpr-252" target="gZ0V9REMa7KwAuEydJpr-250" edge="1">
          <mxGeometry relative="1" as="geometry" />
        </mxCell>
        <mxCell id="gZ0V9REMa7KwAuEydJpr-252" value="Accorder&lt;br&gt;le système" style="rounded=1;fillColor=default;strokeColor=default;strokeWidth=3;fontFamily=Helvetica;html=1;gradientColor=none;fontSize=14;fontColor=default;shadow=0;glass=0;align=center;verticalAlign=middle;" parent="gZ0V9REMa7KwAuEydJpr-145" vertex="1">
          <mxGeometry x="372.9985034013607" y="830" width="127" height="50" as="geometry" />
        </mxCell>
        <mxCell id="gZ0V9REMa7KwAuEydJpr-253" style="edgeStyle=orthogonalEdgeStyle;rounded=1;orthogonalLoop=1;jettySize=auto;html=1;exitX=0.5;exitY=0;exitDx=0;exitDy=0;strokeColor=#0C343D;strokeWidth=3;align=center;verticalAlign=middle;fontFamily=Helvetica;fontSize=11;fontColor=default;labelBackgroundColor=default;elbow=horizontal;startArrow=none;startFill=0;endArrow=classic;" parent="gZ0V9REMa7KwAuEydJpr-145" source="gZ0V9REMa7KwAuEydJpr-255" target="gZ0V9REMa7KwAuEydJpr-291" edge="1">
          <mxGeometry relative="1" as="geometry">
            <Array as="points">
              <mxPoint x="782" y="830" />
            </Array>
          </mxGeometry>
        </mxCell>
        <mxCell id="gZ0V9REMa7KwAuEydJpr-255" value="Afficher la&lt;br&gt;fréquence" style="rounded=1;fillColor=default;strokeColor=default;strokeWidth=3;fontFamily=Helvetica;html=1;gradientColor=none;fontSize=14;fontColor=default;shadow=0;glass=0;align=center;verticalAlign=middle;" parent="gZ0V9REMa7KwAuEydJpr-145" vertex="1">
          <mxGeometry x="715.1885034013603" y="830" width="127" height="50" as="geometry" />
        </mxCell>
        <mxCell id="gZ0V9REMa7KwAuEydJpr-256" value="" style="edgeStyle=orthogonalEdgeStyle;rounded=1;orthogonalLoop=1;jettySize=auto;html=1;strokeColor=#0C343D;strokeWidth=3;align=center;verticalAlign=middle;fontFamily=Helvetica;fontSize=11;fontColor=default;labelBackgroundColor=default;elbow=horizontal;startArrow=none;startFill=0;endArrow=classic;" parent="gZ0V9REMa7KwAuEydJpr-145" source="gZ0V9REMa7KwAuEydJpr-257" target="gZ0V9REMa7KwAuEydJpr-252" edge="1">
          <mxGeometry relative="1" as="geometry" />
        </mxCell>
        <mxCell id="gZ0V9REMa7KwAuEydJpr-257" value="Vérifier la&lt;br&gt;tonalité" style="rounded=1;fillColor=default;strokeColor=default;strokeWidth=3;fontFamily=Helvetica;html=1;gradientColor=none;fontSize=14;fontColor=default;shadow=0;glass=0;align=center;verticalAlign=middle;" parent="gZ0V9REMa7KwAuEydJpr-145" vertex="1">
          <mxGeometry x="203.00476190476184" y="830" width="127" height="50" as="geometry" />
        </mxCell>
        <mxCell id="gZ0V9REMa7KwAuEydJpr-258" value="" style="edgeStyle=orthogonalEdgeStyle;rounded=1;orthogonalLoop=1;jettySize=auto;html=1;strokeColor=#0C343D;strokeWidth=3;align=center;verticalAlign=middle;fontFamily=Helvetica;fontSize=11;fontColor=default;labelBackgroundColor=default;elbow=horizontal;startArrow=none;startFill=0;endArrow=classic;" parent="gZ0V9REMa7KwAuEydJpr-145" source="gZ0V9REMa7KwAuEydJpr-259" target="gZ0V9REMa7KwAuEydJpr-257" edge="1">
          <mxGeometry relative="1" as="geometry" />
        </mxCell>
        <mxCell id="gZ0V9REMa7KwAuEydJpr-259" value="Assurer la justesse&lt;br&gt;&amp;nbsp;de&amp;nbsp;&lt;span style=&quot;background-color: initial;&quot;&gt;sonorité&lt;/span&gt;" style="rounded=1;fillColor=default;strokeColor=default;strokeWidth=3;fontFamily=Helvetica;html=1;gradientColor=none;fontSize=14;fontColor=default;shadow=0;glass=0;align=center;verticalAlign=middle;" parent="gZ0V9REMa7KwAuEydJpr-145" vertex="1">
          <mxGeometry x="33.004761904761835" y="830" width="127" height="50" as="geometry" />
        </mxCell>
        <mxCell id="gZ0V9REMa7KwAuEydJpr-262" value="" style="edgeStyle=orthogonalEdgeStyle;rounded=1;orthogonalLoop=1;jettySize=auto;html=1;strokeColor=#0C343D;strokeWidth=3;align=center;verticalAlign=middle;fontFamily=Helvetica;fontSize=11;fontColor=default;labelBackgroundColor=default;elbow=horizontal;startArrow=none;startFill=0;endArrow=classic;" parent="gZ0V9REMa7KwAuEydJpr-145" source="gZ0V9REMa7KwAuEydJpr-263" target="gZ0V9REMa7KwAuEydJpr-270" edge="1">
          <mxGeometry relative="1" as="geometry" />
        </mxCell>
        <mxCell id="gZ0V9REMa7KwAuEydJpr-263" value="Assurer la sécurité&lt;br&gt;électrique" style="rounded=1;fillColor=default;strokeColor=default;strokeWidth=3;fontFamily=Helvetica;html=1;gradientColor=none;fontSize=14;fontColor=default;shadow=0;glass=0;align=center;verticalAlign=middle;" parent="gZ0V9REMa7KwAuEydJpr-145" vertex="1">
          <mxGeometry x="372.9947619047616" y="930" width="127" height="50" as="geometry" />
        </mxCell>
        <mxCell id="gZ0V9REMa7KwAuEydJpr-264" value="" style="edgeStyle=orthogonalEdgeStyle;rounded=1;orthogonalLoop=1;jettySize=auto;html=1;strokeColor=#0C343D;strokeWidth=3;align=center;verticalAlign=middle;fontFamily=Helvetica;fontSize=11;fontColor=default;labelBackgroundColor=default;elbow=horizontal;startArrow=none;startFill=0;endArrow=classic;" parent="gZ0V9REMa7KwAuEydJpr-145" source="gZ0V9REMa7KwAuEydJpr-265" target="gZ0V9REMa7KwAuEydJpr-272" edge="1">
          <mxGeometry relative="1" as="geometry" />
        </mxCell>
        <mxCell id="gZ0V9REMa7KwAuEydJpr-265" value="Assurer la&lt;br&gt;compatibilité EM" style="rounded=1;fillColor=default;strokeColor=default;strokeWidth=3;fontFamily=Helvetica;html=1;gradientColor=none;fontSize=14;fontColor=default;shadow=0;glass=0;align=center;verticalAlign=middle;" parent="gZ0V9REMa7KwAuEydJpr-145" vertex="1">
          <mxGeometry x="373.00476190476184" y="1025" width="127" height="50" as="geometry" />
        </mxCell>
        <mxCell id="gZ0V9REMa7KwAuEydJpr-267" value="Respecter&lt;br&gt;l&#39;environnement" style="rounded=1;fillColor=default;strokeColor=default;strokeWidth=3;fontFamily=Helvetica;html=1;gradientColor=none;fontSize=14;fontColor=default;shadow=0;glass=0;align=center;verticalAlign=middle;" parent="gZ0V9REMa7KwAuEydJpr-145" vertex="1">
          <mxGeometry x="373.00476190476184" y="1125" width="127" height="50" as="geometry" />
        </mxCell>
        <mxCell id="gZ0V9REMa7KwAuEydJpr-270" value="Protéger la&lt;br&gt;partie électronique" style="rounded=1;fillColor=default;strokeColor=default;strokeWidth=3;fontFamily=Helvetica;html=1;gradientColor=none;fontSize=14;fontColor=default;shadow=0;glass=0;align=center;verticalAlign=middle;" parent="gZ0V9REMa7KwAuEydJpr-145" vertex="1">
          <mxGeometry x="542.9947619047616" y="930" width="127" height="50" as="geometry" />
        </mxCell>
        <mxCell id="gZ0V9REMa7KwAuEydJpr-272" value="Limiter la&lt;br&gt;propagation&lt;br&gt;des OEM" style="rounded=1;fillColor=default;strokeColor=default;strokeWidth=3;fontFamily=Helvetica;html=1;gradientColor=none;fontSize=14;fontColor=default;shadow=0;glass=0;align=center;verticalAlign=middle;" parent="gZ0V9REMa7KwAuEydJpr-145" vertex="1">
          <mxGeometry x="542.9947619047616" y="1025" width="127" height="50" as="geometry" />
        </mxCell>
        <mxCell id="gZ0V9REMa7KwAuEydJpr-278" value="Dimensionnement de l&#39;alimentation" style="rounded=1;fillColor=default;strokeColor=default;strokeWidth=3;fontFamily=Helvetica;html=1;gradientColor=none;fontSize=14;fontColor=default;shadow=0;glass=0;align=center;verticalAlign=middle;whiteSpace=wrap;" parent="gZ0V9REMa7KwAuEydJpr-145" vertex="1">
          <mxGeometry x="202.99476190476162" y="1347" width="127" height="50" as="geometry" />
        </mxCell>
        <mxCell id="gZ0V9REMa7KwAuEydJpr-279" value="" style="edgeStyle=orthogonalEdgeStyle;rounded=1;orthogonalLoop=1;jettySize=auto;html=1;strokeColor=#0C343D;strokeWidth=3;align=center;verticalAlign=middle;fontFamily=Helvetica;fontSize=11;fontColor=default;labelBackgroundColor=default;elbow=horizontal;startArrow=none;startFill=0;endArrow=classic;" parent="gZ0V9REMa7KwAuEydJpr-145" source="gZ0V9REMa7KwAuEydJpr-280" target="gZ0V9REMa7KwAuEydJpr-278" edge="1">
          <mxGeometry relative="1" as="geometry" />
        </mxCell>
        <mxCell id="gZ0V9REMa7KwAuEydJpr-280" value="Alimentation depuis&lt;br&gt;le secteur" style="rounded=1;fillColor=default;strokeColor=default;strokeWidth=3;fontFamily=Helvetica;html=1;gradientColor=none;fontSize=14;fontColor=default;shadow=0;glass=0;align=center;verticalAlign=middle;" parent="gZ0V9REMa7KwAuEydJpr-145" vertex="1">
          <mxGeometry x="35.004761904761835" y="1347" width="127" height="50" as="geometry" />
        </mxCell>
        <mxCell id="gZ0V9REMa7KwAuEydJpr-281" style="edgeStyle=orthogonalEdgeStyle;rounded=1;orthogonalLoop=1;jettySize=auto;html=1;exitX=1;exitY=0.5;exitDx=0;exitDy=0;entryX=0.5;entryY=1;entryDx=0;entryDy=0;strokeColor=#0C343D;strokeWidth=3;align=center;verticalAlign=middle;fontFamily=Helvetica;fontSize=11;fontColor=default;labelBackgroundColor=default;elbow=horizontal;startArrow=none;startFill=0;endArrow=classic;" parent="gZ0V9REMa7KwAuEydJpr-145" source="gZ0V9REMa7KwAuEydJpr-283" target="gZ0V9REMa7KwAuEydJpr-278" edge="1">
          <mxGeometry relative="1" as="geometry" />
        </mxCell>
        <mxCell id="gZ0V9REMa7KwAuEydJpr-282" style="edgeStyle=orthogonalEdgeStyle;rounded=1;orthogonalLoop=1;jettySize=auto;html=1;exitX=1;exitY=0.5;exitDx=0;exitDy=0;entryX=0;entryY=0.5;entryDx=0;entryDy=0;strokeColor=#0C343D;strokeWidth=3;align=center;verticalAlign=middle;fontFamily=Helvetica;fontSize=11;fontColor=default;labelBackgroundColor=default;elbow=horizontal;startArrow=none;startFill=0;endArrow=none;endFill=0;" parent="gZ0V9REMa7KwAuEydJpr-145" source="gZ0V9REMa7KwAuEydJpr-283" target="gZ0V9REMa7KwAuEydJpr-287" edge="1">
          <mxGeometry relative="1" as="geometry" />
        </mxCell>
        <mxCell id="gZ0V9REMa7KwAuEydJpr-283" value="Alimentation depuis&lt;br&gt;la batterie" style="rounded=1;fillColor=default;strokeColor=default;strokeWidth=3;fontFamily=Helvetica;html=1;gradientColor=none;fontSize=14;fontColor=default;shadow=0;glass=0;align=center;verticalAlign=middle;" parent="gZ0V9REMa7KwAuEydJpr-145" vertex="1">
          <mxGeometry x="34.984761904761854" y="1447" width="127" height="50" as="geometry" />
        </mxCell>
        <mxCell id="gZ0V9REMa7KwAuEydJpr-285" value="Synchronisation&lt;br&gt;sur l&#39;horloge" style="rounded=1;fillColor=default;strokeColor=default;strokeWidth=3;fontFamily=Helvetica;html=1;gradientColor=none;fontSize=14;fontColor=default;shadow=0;glass=0;align=center;verticalAlign=middle;" parent="gZ0V9REMa7KwAuEydJpr-145" vertex="1">
          <mxGeometry x="33.004761904761835" y="630" width="127" height="50" as="geometry" />
        </mxCell>
        <mxCell id="gZ0V9REMa7KwAuEydJpr-287" value="Recharge de&lt;br&gt;la batterie" style="rounded=1;fillColor=default;strokeColor=default;strokeWidth=3;fontFamily=Helvetica;html=1;gradientColor=none;fontSize=14;fontColor=default;shadow=0;glass=0;align=center;verticalAlign=middle;" parent="gZ0V9REMa7KwAuEydJpr-145" vertex="1">
          <mxGeometry x="369.33476190476176" y="1447" width="127" height="50" as="geometry" />
        </mxCell>
        <mxCell id="gZ0V9REMa7KwAuEydJpr-288" style="edgeStyle=orthogonalEdgeStyle;rounded=1;orthogonalLoop=1;jettySize=auto;html=1;exitX=0.5;exitY=1;exitDx=0;exitDy=0;entryX=0;entryY=0.5;entryDx=0;entryDy=0;strokeColor=#0C343D;strokeWidth=3;align=center;verticalAlign=middle;fontFamily=Helvetica;fontSize=11;fontColor=default;labelBackgroundColor=default;elbow=horizontal;startArrow=none;startFill=0;endArrow=classic;endFill=1;" parent="gZ0V9REMa7KwAuEydJpr-145" source="gZ0V9REMa7KwAuEydJpr-289" target="gZ0V9REMa7KwAuEydJpr-295" edge="1">
          <mxGeometry relative="1" as="geometry" />
        </mxCell>
        <mxCell id="gZ0V9REMa7KwAuEydJpr-289" value="Recevoir un signal&lt;br&gt;analogique" style="rounded=1;fillColor=default;strokeColor=default;strokeWidth=3;fontFamily=Helvetica;html=1;gradientColor=none;fontSize=14;fontColor=default;shadow=0;glass=0;align=center;verticalAlign=middle;" parent="gZ0V9REMa7KwAuEydJpr-145" vertex="1">
          <mxGeometry x="34.98000000000002" y="250" width="127" height="50" as="geometry" />
        </mxCell>
        <mxCell id="gZ0V9REMa7KwAuEydJpr-290" value="" style="endArrow=none;html=1;rounded=0;strokeColor=#0C343D;strokeWidth=3;align=center;verticalAlign=middle;fontFamily=Helvetica;fontSize=11;fontColor=default;labelBackgroundColor=default;elbow=horizontal;startArrow=none;startFill=0;curved=1;endFill=0;textShadow=0;shadow=0;" parent="gZ0V9REMa7KwAuEydJpr-145" target="gZ0V9REMa7KwAuEydJpr-291" edge="1">
          <mxGeometry width="50" height="50" relative="1" as="geometry">
            <mxPoint x="773" y="755" as="sourcePoint" />
            <mxPoint x="793" y="755" as="targetPoint" />
            <Array as="points" />
          </mxGeometry>
        </mxCell>
        <mxCell id="gZ0V9REMa7KwAuEydJpr-291" value="Avoir une&lt;br&gt;interface visuelle" style="rounded=1;fillColor=default;strokeColor=default;strokeWidth=3;fontFamily=Helvetica;html=1;gradientColor=none;fontSize=14;fontColor=default;shadow=0;glass=0;align=center;verticalAlign=middle;" parent="gZ0V9REMa7KwAuEydJpr-145" vertex="1">
          <mxGeometry x="715.1885034013603" y="730" width="127" height="50" as="geometry" />
        </mxCell>
        <mxCell id="gZ0V9REMa7KwAuEydJpr-295" value="Convertir en format&lt;br&gt;unifié" style="rounded=1;fillColor=default;strokeColor=default;strokeWidth=3;fontFamily=Helvetica;html=1;gradientColor=none;fontSize=14;fontColor=default;shadow=0;glass=0;align=center;verticalAlign=middle;" parent="gZ0V9REMa7KwAuEydJpr-145" vertex="1">
          <mxGeometry x="202.99476190476207" y="350" width="127" height="50" as="geometry" />
        </mxCell>
        <mxCell id="gZ0V9REMa7KwAuEydJpr-310" value="Conditionnement du signal" style="rounded=1;fillColor=default;strokeColor=default;strokeWidth=3;fontFamily=Helvetica;html=1;gradientColor=none;fontSize=14;fontColor=default;shadow=0;glass=0;align=center;verticalAlign=middle;whiteSpace=wrap;" parent="gZ0V9REMa7KwAuEydJpr-145" vertex="1">
          <mxGeometry x="203.00476190476206" y="440" width="127" height="50" as="geometry" />
        </mxCell>
        <mxCell id="gZ0V9REMa7KwAuEydJpr-312" style="edgeStyle=orthogonalEdgeStyle;rounded=1;orthogonalLoop=1;jettySize=auto;html=1;exitX=0.5;exitY=1;exitDx=0;exitDy=0;entryX=0;entryY=0.5;entryDx=0;entryDy=0;strokeColor=#0C343D;strokeWidth=3;align=center;verticalAlign=middle;fontFamily=Helvetica;fontSize=11;fontColor=default;labelBackgroundColor=default;elbow=horizontal;startArrow=none;startFill=0;endArrow=classic;endFill=1;" parent="gZ0V9REMa7KwAuEydJpr-145" source="gZ0V9REMa7KwAuEydJpr-289" target="gZ0V9REMa7KwAuEydJpr-310" edge="1">
          <mxGeometry relative="1" as="geometry">
            <mxPoint x="108" y="310" as="sourcePoint" />
            <mxPoint x="213" y="385" as="targetPoint" />
          </mxGeometry>
        </mxCell>
        <mxCell id="867uV8Z3yE4uk9PF_wIT-1" value="Sync Analogique" style="rounded=1;fillColor=default;strokeColor=default;strokeWidth=3;fontFamily=Helvetica;html=1;gradientColor=none;fontSize=14;fontColor=default;shadow=0;glass=0;align=center;verticalAlign=middle;" parent="gZ0V9REMa7KwAuEydJpr-145" vertex="1">
          <mxGeometry x="30" y="1578" width="130" height="50" as="geometry" />
        </mxCell>
        <mxCell id="867uV8Z3yE4uk9PF_wIT-2" value="Sync Numerique" style="rounded=1;fillColor=default;strokeColor=default;strokeWidth=3;fontFamily=Helvetica;html=1;gradientColor=none;fontSize=14;fontColor=default;shadow=0;glass=0;align=center;verticalAlign=middle;" parent="gZ0V9REMa7KwAuEydJpr-145" vertex="1">
          <mxGeometry x="30" y="1800" width="130" height="50" as="geometry" />
        </mxCell>
        <mxCell id="gZ0V9REMa7KwAuEydJpr-146" value="Solutions" style="swimlane;startSize=20;html=1;" parent="gZ0V9REMa7KwAuEydJpr-143" vertex="1">
          <mxGeometry x="1250" y="20" width="220" height="1890" as="geometry" />
        </mxCell>
        <mxCell id="gZ0V9REMa7KwAuEydJpr-179" value="Modulariser le système" style="rounded=1;fillColor=default;strokeColor=default;strokeWidth=3;fontFamily=Helvetica;html=1;gradientColor=none;fontSize=14;fontColor=default;shadow=0;glass=0;align=center;verticalAlign=middle;whiteSpace=wrap;" parent="gZ0V9REMa7KwAuEydJpr-146" vertex="1">
          <mxGeometry x="40" y="1245" width="130" height="50" as="geometry" />
        </mxCell>
        <mxCell id="lbHmvQgw_xh4JbIbqRLj-148" value="Alimentation&lt;br&gt;ergonomique" style="rounded=1;fillColor=default;strokeColor=default;strokeWidth=3;fontFamily=Helvetica;html=1;gradientColor=none;fontSize=14;fontColor=default;shadow=0;glass=0;align=center;verticalAlign=middle;" parent="gZ0V9REMa7KwAuEydJpr-146" vertex="1">
          <mxGeometry x="43.00476190476192" y="1347" width="127" height="50" as="geometry" />
        </mxCell>
        <mxCell id="6XZTJtPdoMXxVd_SXc5S-162" value="Haut - parleur(s)" style="rounded=1;fillColor=default;strokeColor=default;strokeWidth=3;fontFamily=Helvetica;html=1;gradientColor=none;fontSize=14;fontColor=default;shadow=0;glass=0;align=center;verticalAlign=middle;" parent="gZ0V9REMa7KwAuEydJpr-146" vertex="1">
          <mxGeometry x="46.504761904762155" y="1500" width="127" height="50" as="geometry" />
        </mxCell>
        <mxCell id="gZ0V9REMa7KwAuEydJpr-299" value="Port(s) USB" style="rounded=1;fillColor=default;strokeColor=default;strokeWidth=3;fontFamily=Helvetica;html=1;gradientColor=none;fontSize=14;fontColor=default;shadow=0;glass=0;align=center;verticalAlign=middle;" parent="gZ0V9REMa7KwAuEydJpr-146" vertex="1">
          <mxGeometry x="43.00850340136071" y="525" width="127" height="50" as="geometry" />
        </mxCell>
        <mxCell id="gZ0V9REMa7KwAuEydJpr-300" value="Ecran" style="rounded=1;fillColor=default;strokeColor=default;strokeWidth=3;fontFamily=Helvetica;html=1;gradientColor=none;fontSize=14;fontColor=default;shadow=0;glass=0;align=center;verticalAlign=middle;" parent="gZ0V9REMa7KwAuEydJpr-146" vertex="1">
          <mxGeometry x="46.00850340136071" y="730" width="127" height="50" as="geometry" />
        </mxCell>
        <mxCell id="gZ0V9REMa7KwAuEydJpr-301" value="Communication&lt;br&gt;MIDI" style="rounded=1;fillColor=default;strokeColor=default;strokeWidth=3;fontFamily=Helvetica;html=1;gradientColor=none;fontSize=14;fontColor=default;shadow=0;glass=0;align=center;verticalAlign=middle;" parent="gZ0V9REMa7KwAuEydJpr-146" vertex="1">
          <mxGeometry x="46.00476190476252" y="630" width="127" height="50" as="geometry" />
        </mxCell>
        <mxCell id="gZ0V9REMa7KwAuEydJpr-302" value="Vumètre" style="rounded=1;fillColor=default;strokeColor=default;strokeWidth=3;fontFamily=Helvetica;html=1;gradientColor=none;fontSize=14;fontColor=default;shadow=0;glass=0;align=center;verticalAlign=middle;" parent="gZ0V9REMa7KwAuEydJpr-146" vertex="1">
          <mxGeometry x="46.00476190476206" y="830" width="127" height="50" as="geometry" />
        </mxCell>
        <mxCell id="gZ0V9REMa7KwAuEydJpr-303" value="Potentiomètre(s)&lt;br&gt;rotatif(s) ou sur&amp;nbsp;&lt;span style=&quot;font-size: 12px; text-wrap-mode: wrap; background-color: rgb(255, 255, 255);&quot;&gt;IHM&lt;/span&gt;" style="rounded=1;fillColor=default;strokeColor=default;strokeWidth=3;fontFamily=Helvetica;html=1;gradientColor=none;fontSize=14;fontColor=default;shadow=0;glass=0;align=center;verticalAlign=middle;" parent="gZ0V9REMa7KwAuEydJpr-146" vertex="1">
          <mxGeometry x="46.00476190476161" y="150" width="127" height="50" as="geometry" />
        </mxCell>
        <mxCell id="gZ0V9REMa7KwAuEydJpr-304" value="Intégration&lt;br&gt;électronique&lt;br&gt;réfléchie" style="rounded=1;fillColor=default;strokeColor=default;strokeWidth=3;fontFamily=Helvetica;html=1;gradientColor=none;fontSize=14;fontColor=default;shadow=0;glass=0;align=center;verticalAlign=middle;" parent="gZ0V9REMa7KwAuEydJpr-146" vertex="1">
          <mxGeometry x="46.00476190476161" y="1025" width="127" height="50" as="geometry" />
        </mxCell>
        <mxCell id="gZ0V9REMa7KwAuEydJpr-305" value="Boite close" style="rounded=1;fillColor=default;strokeColor=default;strokeWidth=3;fontFamily=Helvetica;html=1;gradientColor=none;fontSize=14;fontColor=default;shadow=0;glass=0;align=center;verticalAlign=middle;" parent="gZ0V9REMa7KwAuEydJpr-146" vertex="1">
          <mxGeometry x="46.00476190476161" y="930" width="127" height="50" as="geometry" />
        </mxCell>
        <mxCell id="gZ0V9REMa7KwAuEydJpr-306" value="Réutilisation du&lt;br&gt;matériel" style="rounded=1;fillColor=default;strokeColor=default;strokeWidth=3;fontFamily=Helvetica;html=1;gradientColor=none;fontSize=14;fontColor=default;shadow=0;glass=0;align=center;verticalAlign=middle;" parent="gZ0V9REMa7KwAuEydJpr-146" vertex="1">
          <mxGeometry x="46.00476190476161" y="1125" width="127" height="50" as="geometry" />
        </mxCell>
        <mxCell id="gZ0V9REMa7KwAuEydJpr-307" value="XLR / RCA / Jack" style="rounded=1;fillColor=default;strokeColor=default;strokeWidth=3;fontFamily=Helvetica;html=1;gradientColor=none;fontSize=14;fontColor=default;shadow=0;glass=0;align=center;verticalAlign=middle;" parent="gZ0V9REMa7KwAuEydJpr-146" vertex="1">
          <mxGeometry x="46.00476190476161" y="250" width="127" height="50" as="geometry" />
        </mxCell>
        <mxCell id="gZ0V9REMa7KwAuEydJpr-308" value="Potentiomètre(s)&lt;br&gt;linéaire(s) ou sur&amp;nbsp;&lt;span style=&quot;text-wrap-mode: wrap; background-color: rgb(255, 255, 255);&quot;&gt;IHM&lt;/span&gt;" style="rounded=1;fillColor=default;strokeColor=default;strokeWidth=3;gradientColor=none;fontFamily=Helvetica;html=1;fontSize=12;fontColor=default;shadow=0;glass=0;align=center;verticalAlign=middle;" parent="gZ0V9REMa7KwAuEydJpr-146" vertex="1">
          <mxGeometry x="46.01163265306127" y="50" width="127" height="50" as="geometry" />
        </mxCell>
        <mxCell id="gZ0V9REMa7KwAuEydJpr-309" value="CAN" style="rounded=1;fillColor=default;strokeColor=default;strokeWidth=3;fontFamily=Helvetica;html=1;gradientColor=none;fontSize=14;fontColor=default;shadow=0;glass=0;align=center;verticalAlign=middle;" parent="gZ0V9REMa7KwAuEydJpr-146" vertex="1">
          <mxGeometry x="43.00850340136071" y="349.5" width="127" height="50" as="geometry" />
        </mxCell>
        <mxCell id="gZ0V9REMa7KwAuEydJpr-313" value="Filtres et Amplificateurs" style="rounded=1;fillColor=default;strokeColor=default;strokeWidth=3;fontFamily=Helvetica;html=1;gradientColor=none;fontSize=14;fontColor=default;shadow=0;glass=0;align=center;verticalAlign=middle;whiteSpace=wrap;" parent="gZ0V9REMa7KwAuEydJpr-146" vertex="1">
          <mxGeometry x="39.99850340136072" y="440" width="127" height="50" as="geometry" />
        </mxCell>
        <mxCell id="vQp27on8ZmXm1fHPbCtk-1" value="Timecode" style="rounded=1;fillColor=default;strokeColor=default;strokeWidth=3;fontFamily=Helvetica;html=1;gradientColor=none;fontSize=14;fontColor=default;shadow=0;glass=0;align=center;verticalAlign=middle;" vertex="1" parent="gZ0V9REMa7KwAuEydJpr-146">
          <mxGeometry x="46.5" y="1800" width="130" height="50" as="geometry" />
        </mxCell>
        <mxCell id="vQp27on8ZmXm1fHPbCtk-3" value="Impulsion de Reference" style="rounded=1;fillColor=default;strokeColor=default;strokeWidth=3;fontFamily=Helvetica;html=1;gradientColor=none;fontSize=13;fontColor=default;shadow=0;glass=0;align=center;verticalAlign=middle;whiteSpace=wrap;" vertex="1" parent="gZ0V9REMa7KwAuEydJpr-146">
          <mxGeometry x="46.5" y="1578" width="130" height="50" as="geometry" />
        </mxCell>
        <mxCell id="vQp27on8ZmXm1fHPbCtk-23" value="&lt;font style=&quot;font-size: 11px;&quot;&gt;Signal de Demarage / Callibration au demarage&lt;/font&gt;" style="rounded=1;fillColor=default;strokeColor=default;strokeWidth=3;fontFamily=Helvetica;html=1;gradientColor=none;fontSize=14;fontColor=default;shadow=0;glass=0;align=left;verticalAlign=middle;whiteSpace=wrap;" vertex="1" parent="gZ0V9REMa7KwAuEydJpr-146">
          <mxGeometry x="46" y="1693.5" width="130" height="46.5" as="geometry" />
        </mxCell>
        <mxCell id="gZ0V9REMa7KwAuEydJpr-293" style="edgeStyle=orthogonalEdgeStyle;rounded=1;orthogonalLoop=1;jettySize=auto;html=1;exitX=1;exitY=0.5;exitDx=0;exitDy=0;entryX=0;entryY=0.5;entryDx=0;entryDy=0;strokeColor=#0C343D;strokeWidth=3;align=center;verticalAlign=middle;fontFamily=Helvetica;fontSize=11;fontColor=default;labelBackgroundColor=default;elbow=horizontal;startArrow=none;startFill=0;endArrow=classic;" parent="gZ0V9REMa7KwAuEydJpr-143" source="gZ0V9REMa7KwAuEydJpr-158" target="gZ0V9REMa7KwAuEydJpr-232" edge="1">
          <mxGeometry relative="1" as="geometry">
            <Array as="points">
              <mxPoint x="405" y="145" />
              <mxPoint x="405" y="195" />
            </Array>
            <mxPoint x="380.00476190476184" y="145" as="sourcePoint" />
          </mxGeometry>
        </mxCell>
        <mxCell id="gZ0V9REMa7KwAuEydJpr-292" style="edgeStyle=orthogonalEdgeStyle;rounded=1;orthogonalLoop=1;jettySize=auto;html=1;exitX=1;exitY=0.5;exitDx=0;exitDy=0;entryX=0;entryY=0.5;entryDx=0;entryDy=0;strokeColor=#0C343D;strokeWidth=3;align=center;verticalAlign=middle;fontFamily=Helvetica;fontSize=11;fontColor=default;labelBackgroundColor=default;elbow=horizontal;startArrow=none;startFill=0;endArrow=classic;" parent="gZ0V9REMa7KwAuEydJpr-143" source="gZ0V9REMa7KwAuEydJpr-158" target="gZ0V9REMa7KwAuEydJpr-242" edge="1">
          <mxGeometry relative="1" as="geometry">
            <Array as="points">
              <mxPoint x="405" y="145" />
              <mxPoint x="405" y="95" />
            </Array>
            <mxPoint x="380.00476190476184" y="145" as="sourcePoint" />
          </mxGeometry>
        </mxCell>
        <mxCell id="gZ0V9REMa7KwAuEydJpr-238" style="edgeStyle=orthogonalEdgeStyle;rounded=1;orthogonalLoop=1;jettySize=auto;html=1;entryX=0;entryY=0.5;entryDx=0;entryDy=0;strokeColor=#0C343D;strokeWidth=3;align=center;verticalAlign=middle;fontFamily=Helvetica;fontSize=11;fontColor=default;labelBackgroundColor=default;elbow=horizontal;startArrow=none;startFill=0;endArrow=classic;exitX=1;exitY=0.5;exitDx=0;exitDy=0;" parent="gZ0V9REMa7KwAuEydJpr-143" source="gZ0V9REMa7KwAuEydJpr-154" target="gZ0V9REMa7KwAuEydJpr-289" edge="1">
          <mxGeometry relative="1" as="geometry">
            <Array as="points">
              <mxPoint x="405" y="570" />
              <mxPoint x="405" y="295" />
            </Array>
            <mxPoint x="380" y="490" as="sourcePoint" />
          </mxGeometry>
        </mxCell>
        <mxCell id="gZ0V9REMa7KwAuEydJpr-237" style="edgeStyle=elbowEdgeStyle;rounded=1;orthogonalLoop=1;jettySize=auto;html=1;exitX=1;exitY=0.5;exitDx=0;exitDy=0;entryX=0;entryY=0.5;entryDx=0;entryDy=0;strokeWidth=3;strokeColor=#0C343D;curved=0;" parent="gZ0V9REMa7KwAuEydJpr-143" source="gZ0V9REMa7KwAuEydJpr-154" target="gZ0V9REMa7KwAuEydJpr-234" edge="1">
          <mxGeometry relative="1" as="geometry">
            <mxPoint x="379.9837414965991" y="569.8900000000001" as="sourcePoint" />
            <mxPoint x="422.98476190476185" y="569.8900000000001" as="targetPoint" />
          </mxGeometry>
        </mxCell>
        <mxCell id="gZ0V9REMa7KwAuEydJpr-241" value="" style="edgeStyle=elbowEdgeStyle;elbow=horizontal;strokeWidth=3;strokeColor=#0C343D;fontFamily=Helvetica;html=1;exitX=1;exitY=0.5;exitDx=0;exitDy=0;entryX=0;entryY=0.5;entryDx=0;entryDy=0;" parent="gZ0V9REMa7KwAuEydJpr-143" source="gZ0V9REMa7KwAuEydJpr-155" target="gZ0V9REMa7KwAuEydJpr-236" edge="1">
          <mxGeometry x="-93.55102040816325" y="790.5" width="131.97278911564624" height="100" as="geometry">
            <mxPoint x="380.0037414965991" y="775" as="sourcePoint" />
            <mxPoint x="-382.5782312925171" y="225" as="targetPoint" />
          </mxGeometry>
        </mxCell>
        <mxCell id="gZ0V9REMa7KwAuEydJpr-239" style="edgeStyle=orthogonalEdgeStyle;rounded=1;orthogonalLoop=1;jettySize=auto;html=1;exitX=1;exitY=0.5;exitDx=0;exitDy=0;entryX=0;entryY=0.5;entryDx=0;entryDy=0;strokeColor=#0C343D;strokeWidth=3;align=center;verticalAlign=middle;fontFamily=Helvetica;fontSize=11;fontColor=default;labelBackgroundColor=default;elbow=horizontal;startArrow=none;startFill=0;endArrow=classic;endFill=1;" parent="gZ0V9REMa7KwAuEydJpr-143" source="gZ0V9REMa7KwAuEydJpr-155" target="gZ0V9REMa7KwAuEydJpr-285" edge="1">
          <mxGeometry relative="1" as="geometry">
            <Array as="points">
              <mxPoint x="370" y="775" />
              <mxPoint x="405" y="775" />
              <mxPoint x="405" y="675" />
            </Array>
            <mxPoint x="380.0037414965991" y="775" as="sourcePoint" />
          </mxGeometry>
        </mxCell>
        <mxCell id="gZ0V9REMa7KwAuEydJpr-261" value="" style="edgeStyle=orthogonalEdgeStyle;rounded=1;orthogonalLoop=1;jettySize=auto;html=1;strokeColor=#0C343D;strokeWidth=3;align=center;verticalAlign=middle;fontFamily=Helvetica;fontSize=11;fontColor=default;labelBackgroundColor=default;elbow=horizontal;startArrow=none;startFill=0;endArrow=classic;exitX=1;exitY=0.5;exitDx=0;exitDy=0;" parent="gZ0V9REMa7KwAuEydJpr-143" source="gZ0V9REMa7KwAuEydJpr-156" target="gZ0V9REMa7KwAuEydJpr-259" edge="1">
          <mxGeometry relative="1" as="geometry">
            <mxPoint x="380.00476190476184" y="975" as="sourcePoint" />
          </mxGeometry>
        </mxCell>
        <mxCell id="gZ0V9REMa7KwAuEydJpr-260" style="edgeStyle=orthogonalEdgeStyle;rounded=1;orthogonalLoop=1;jettySize=auto;html=1;exitX=1;exitY=0.5;exitDx=0;exitDy=0;entryX=0;entryY=0.5;entryDx=0;entryDy=0;strokeColor=#0C343D;strokeWidth=3;align=center;verticalAlign=middle;fontFamily=Helvetica;fontSize=11;fontColor=default;labelBackgroundColor=default;elbow=horizontal;startArrow=none;startFill=0;endArrow=classic;" parent="gZ0V9REMa7KwAuEydJpr-143" source="gZ0V9REMa7KwAuEydJpr-156" target="gZ0V9REMa7KwAuEydJpr-248" edge="1">
          <mxGeometry relative="1" as="geometry">
            <mxPoint x="380.00476190476184" y="975" as="sourcePoint" />
          </mxGeometry>
        </mxCell>
        <mxCell id="gZ0V9REMa7KwAuEydJpr-298" style="rounded=1;orthogonalLoop=1;jettySize=auto;html=1;exitX=1;exitY=0.5;exitDx=0;exitDy=0;strokeColor=#0C343D;strokeWidth=3;align=center;verticalAlign=middle;fontFamily=Helvetica;fontSize=11;fontColor=default;labelBackgroundColor=default;elbow=horizontal;startArrow=none;startFill=0;endArrow=classic;entryX=0;entryY=0.5;entryDx=0;entryDy=0;" parent="gZ0V9REMa7KwAuEydJpr-143" source="gZ0V9REMa7KwAuEydJpr-175" target="gZ0V9REMa7KwAuEydJpr-179" edge="1">
          <mxGeometry relative="1" as="geometry">
            <mxPoint x="1293" y="1180" as="targetPoint" />
            <mxPoint x="900" y="1180" as="sourcePoint" />
          </mxGeometry>
        </mxCell>
        <mxCell id="gZ0V9REMa7KwAuEydJpr-296" style="rounded=1;orthogonalLoop=1;jettySize=auto;html=1;exitX=1;exitY=0.5;exitDx=0;exitDy=0;strokeColor=#0C343D;strokeWidth=3;align=center;verticalAlign=middle;fontFamily=Helvetica;fontSize=11;fontColor=default;labelBackgroundColor=default;elbow=horizontal;startArrow=none;startFill=0;endArrow=classic;endFill=1;entryX=0;entryY=0.5;entryDx=0;entryDy=0;" parent="gZ0V9REMa7KwAuEydJpr-143" source="gZ0V9REMa7KwAuEydJpr-159" target="6XZTJtPdoMXxVd_SXc5S-162" edge="1">
          <mxGeometry relative="1" as="geometry">
            <mxPoint x="382.00476190476184" y="1597" as="sourcePoint" />
            <mxPoint x="1280" y="1573" as="targetPoint" />
          </mxGeometry>
        </mxCell>
        <mxCell id="gZ0V9REMa7KwAuEydJpr-277" style="rounded=1;orthogonalLoop=1;jettySize=auto;html=1;exitX=1;exitY=0.5;exitDx=0;exitDy=0;strokeColor=#0C343D;strokeWidth=3;align=center;verticalAlign=middle;fontFamily=Helvetica;fontSize=11;fontColor=default;labelBackgroundColor=default;elbow=horizontal;startArrow=none;startFill=0;endArrow=classic;entryX=0;entryY=0.5;entryDx=0;entryDy=0;" parent="gZ0V9REMa7KwAuEydJpr-143" source="gZ0V9REMa7KwAuEydJpr-278" target="lbHmvQgw_xh4JbIbqRLj-148" edge="1">
          <mxGeometry relative="1" as="geometry">
            <mxPoint x="1283" y="1392" as="targetPoint" />
          </mxGeometry>
        </mxCell>
        <mxCell id="gZ0V9REMa7KwAuEydJpr-286" style="edgeStyle=orthogonalEdgeStyle;rounded=1;orthogonalLoop=1;jettySize=auto;html=1;exitX=1;exitY=0.5;exitDx=0;exitDy=0;strokeColor=#0C343D;strokeWidth=3;align=center;verticalAlign=middle;fontFamily=Helvetica;fontSize=11;fontColor=default;labelBackgroundColor=default;elbow=horizontal;startArrow=none;startFill=0;endArrow=classic;endFill=1;entryX=0;entryY=0.5;entryDx=0;entryDy=0;" parent="gZ0V9REMa7KwAuEydJpr-143" source="gZ0V9REMa7KwAuEydJpr-287" target="lbHmvQgw_xh4JbIbqRLj-148" edge="1">
          <mxGeometry relative="1" as="geometry">
            <Array as="points">
              <mxPoint x="886" y="1493" />
              <mxPoint x="919" y="1493" />
              <mxPoint x="919" y="1392" />
            </Array>
            <mxPoint x="1290" y="1392" as="targetPoint" />
            <mxPoint x="870.0047619047615" y="1507.0000000000002" as="sourcePoint" />
          </mxGeometry>
        </mxCell>
        <mxCell id="gZ0V9REMa7KwAuEydJpr-274" style="edgeStyle=orthogonalEdgeStyle;rounded=1;orthogonalLoop=1;jettySize=auto;html=1;exitX=1;exitY=0.5;exitDx=0;exitDy=0;strokeColor=#0C343D;strokeWidth=3;align=center;verticalAlign=middle;fontFamily=Helvetica;fontSize=11;fontColor=default;labelBackgroundColor=default;elbow=horizontal;startArrow=none;startFill=0;endArrow=classic;entryX=0;entryY=0.5;entryDx=0;entryDy=0;" parent="gZ0V9REMa7KwAuEydJpr-143" source="gZ0V9REMa7KwAuEydJpr-242" target="gZ0V9REMa7KwAuEydJpr-308" edge="1">
          <mxGeometry relative="1" as="geometry">
            <mxPoint x="719.9916326530611" y="95" as="sourcePoint" />
            <mxPoint x="1283" y="95" as="targetPoint" />
          </mxGeometry>
        </mxCell>
        <mxCell id="gZ0V9REMa7KwAuEydJpr-240" style="edgeStyle=orthogonalEdgeStyle;rounded=1;orthogonalLoop=1;jettySize=auto;html=1;exitX=1;exitY=0.5;exitDx=0;exitDy=0;strokeColor=#0C343D;strokeWidth=3;align=center;verticalAlign=middle;fontFamily=Helvetica;fontSize=11;fontColor=default;labelBackgroundColor=default;elbow=horizontal;startArrow=none;startFill=0;endArrow=classic;entryX=0;entryY=0.5;entryDx=0;entryDy=0;" parent="gZ0V9REMa7KwAuEydJpr-143" source="gZ0V9REMa7KwAuEydJpr-232" target="gZ0V9REMa7KwAuEydJpr-303" edge="1">
          <mxGeometry relative="1" as="geometry">
            <mxPoint x="720.0014285714287" y="195" as="sourcePoint" />
            <mxPoint x="1283" y="195" as="targetPoint" />
          </mxGeometry>
        </mxCell>
        <mxCell id="gZ0V9REMa7KwAuEydJpr-273" style="edgeStyle=orthogonalEdgeStyle;rounded=1;orthogonalLoop=1;jettySize=auto;html=1;exitX=1;exitY=0.5;exitDx=0;exitDy=0;strokeColor=#0C343D;strokeWidth=3;align=center;verticalAlign=middle;fontFamily=Helvetica;fontSize=11;fontColor=default;labelBackgroundColor=default;elbow=horizontal;startArrow=none;startFill=0;endArrow=classic;entryX=0;entryY=0.5;entryDx=0;entryDy=0;" parent="gZ0V9REMa7KwAuEydJpr-143" source="gZ0V9REMa7KwAuEydJpr-289" target="gZ0V9REMa7KwAuEydJpr-307" edge="1">
          <mxGeometry relative="1" as="geometry">
            <mxPoint x="889.9947619047616" y="295" as="sourcePoint" />
            <mxPoint x="1283" y="295" as="targetPoint" />
          </mxGeometry>
        </mxCell>
        <mxCell id="gZ0V9REMa7KwAuEydJpr-294" style="edgeStyle=orthogonalEdgeStyle;rounded=1;orthogonalLoop=1;jettySize=auto;html=1;exitX=1;exitY=0.5;exitDx=0;exitDy=0;entryX=0;entryY=0.5;entryDx=0;entryDy=0;strokeColor=#0C343D;strokeWidth=3;align=center;verticalAlign=middle;fontFamily=Helvetica;fontSize=11;fontColor=default;labelBackgroundColor=default;elbow=horizontal;startArrow=none;startFill=0;endArrow=classic;endFill=1;" parent="gZ0V9REMa7KwAuEydJpr-143" source="gZ0V9REMa7KwAuEydJpr-295" target="gZ0V9REMa7KwAuEydJpr-309" edge="1">
          <mxGeometry relative="1" as="geometry">
            <mxPoint x="1280" y="395" as="targetPoint" />
          </mxGeometry>
        </mxCell>
        <mxCell id="gZ0V9REMa7KwAuEydJpr-284" style="edgeStyle=orthogonalEdgeStyle;rounded=1;orthogonalLoop=1;jettySize=auto;html=1;exitX=1;exitY=0.5;exitDx=0;exitDy=0;entryX=0;entryY=0.5;entryDx=0;entryDy=0;strokeColor=#0C343D;strokeWidth=3;align=center;verticalAlign=middle;fontFamily=Helvetica;fontSize=11;fontColor=default;labelBackgroundColor=default;elbow=horizontal;startArrow=none;startFill=0;endArrow=classic;" parent="gZ0V9REMa7KwAuEydJpr-143" source="gZ0V9REMa7KwAuEydJpr-285" target="gZ0V9REMa7KwAuEydJpr-301" edge="1">
          <mxGeometry relative="1" as="geometry">
            <mxPoint x="1283" y="675" as="targetPoint" />
          </mxGeometry>
        </mxCell>
        <mxCell id="gZ0V9REMa7KwAuEydJpr-244" style="edgeStyle=orthogonalEdgeStyle;rounded=1;orthogonalLoop=1;jettySize=auto;html=1;exitX=1;exitY=0.5;exitDx=0;exitDy=0;entryX=0;entryY=0.5;entryDx=0;entryDy=0;strokeColor=#0C343D;strokeWidth=3;align=center;verticalAlign=middle;fontFamily=Helvetica;fontSize=11;fontColor=default;labelBackgroundColor=default;elbow=horizontal;startArrow=none;startFill=0;endArrow=classic;" parent="gZ0V9REMa7KwAuEydJpr-143" source="gZ0V9REMa7KwAuEydJpr-291" target="gZ0V9REMa7KwAuEydJpr-300" edge="1">
          <mxGeometry relative="1" as="geometry">
            <mxPoint x="1283" y="775" as="targetPoint" />
          </mxGeometry>
        </mxCell>
        <mxCell id="gZ0V9REMa7KwAuEydJpr-254" style="edgeStyle=orthogonalEdgeStyle;rounded=1;orthogonalLoop=1;jettySize=auto;html=1;exitX=1;exitY=0.5;exitDx=0;exitDy=0;strokeColor=#0C343D;strokeWidth=3;align=center;verticalAlign=middle;fontFamily=Helvetica;fontSize=11;fontColor=default;labelBackgroundColor=default;elbow=horizontal;startArrow=none;startFill=0;endArrow=classic;entryX=0;entryY=0.5;entryDx=0;entryDy=0;" parent="gZ0V9REMa7KwAuEydJpr-143" source="gZ0V9REMa7KwAuEydJpr-255" target="gZ0V9REMa7KwAuEydJpr-302" edge="1">
          <mxGeometry relative="1" as="geometry">
            <mxPoint x="1283" y="875" as="targetPoint" />
          </mxGeometry>
        </mxCell>
        <mxCell id="gZ0V9REMa7KwAuEydJpr-268" style="edgeStyle=orthogonalEdgeStyle;rounded=1;orthogonalLoop=1;jettySize=auto;html=1;exitX=1;exitY=0.5;exitDx=0;exitDy=0;strokeColor=#0C343D;strokeWidth=3;align=center;verticalAlign=middle;fontFamily=Helvetica;fontSize=11;fontColor=default;labelBackgroundColor=default;elbow=horizontal;startArrow=none;startFill=0;endArrow=classic;entryX=0;entryY=0.5;entryDx=0;entryDy=0;" parent="gZ0V9REMa7KwAuEydJpr-143" source="gZ0V9REMa7KwAuEydJpr-270" target="gZ0V9REMa7KwAuEydJpr-305" edge="1">
          <mxGeometry relative="1" as="geometry">
            <mxPoint x="1283" y="975" as="targetPoint" />
          </mxGeometry>
        </mxCell>
        <mxCell id="gZ0V9REMa7KwAuEydJpr-271" style="edgeStyle=orthogonalEdgeStyle;rounded=1;orthogonalLoop=1;jettySize=auto;html=1;exitX=1;exitY=0.5;exitDx=0;exitDy=0;strokeColor=#0C343D;strokeWidth=3;align=center;verticalAlign=middle;fontFamily=Helvetica;fontSize=11;fontColor=default;labelBackgroundColor=default;elbow=horizontal;startArrow=none;startFill=0;endArrow=classic;entryX=0;entryY=0.5;entryDx=0;entryDy=0;" parent="gZ0V9REMa7KwAuEydJpr-143" source="gZ0V9REMa7KwAuEydJpr-272" target="gZ0V9REMa7KwAuEydJpr-304" edge="1">
          <mxGeometry relative="1" as="geometry">
            <mxPoint x="1283" y="1070" as="targetPoint" />
          </mxGeometry>
        </mxCell>
        <mxCell id="gZ0V9REMa7KwAuEydJpr-269" style="edgeStyle=orthogonalEdgeStyle;rounded=0;orthogonalLoop=1;jettySize=auto;html=1;exitX=1;exitY=0.5;exitDx=0;exitDy=0;entryX=0;entryY=0.5;entryDx=0;entryDy=0;strokeColor=#0C343D;strokeWidth=3;align=center;verticalAlign=middle;fontFamily=Helvetica;fontSize=11;fontColor=default;labelBackgroundColor=default;elbow=horizontal;startArrow=none;startFill=0;endArrow=classic;curved=0;" parent="gZ0V9REMa7KwAuEydJpr-143" source="gZ0V9REMa7KwAuEydJpr-270" target="gZ0V9REMa7KwAuEydJpr-304" edge="1">
          <mxGeometry relative="1" as="geometry">
            <Array as="points">
              <mxPoint x="1173" y="975" />
              <mxPoint x="1173" y="1070" />
            </Array>
            <mxPoint x="1283" y="1070" as="targetPoint" />
          </mxGeometry>
        </mxCell>
        <mxCell id="gZ0V9REMa7KwAuEydJpr-266" style="edgeStyle=orthogonalEdgeStyle;rounded=1;orthogonalLoop=1;jettySize=auto;html=1;exitX=1;exitY=0.5;exitDx=0;exitDy=0;strokeColor=#0C343D;strokeWidth=3;align=center;verticalAlign=middle;fontFamily=Helvetica;fontSize=11;fontColor=default;labelBackgroundColor=default;elbow=horizontal;startArrow=none;startFill=0;endArrow=classic;entryX=0;entryY=0.5;entryDx=0;entryDy=0;" parent="gZ0V9REMa7KwAuEydJpr-143" source="gZ0V9REMa7KwAuEydJpr-267" target="gZ0V9REMa7KwAuEydJpr-306" edge="1">
          <mxGeometry relative="1" as="geometry">
            <mxPoint x="1283" y="1170" as="targetPoint" />
          </mxGeometry>
        </mxCell>
        <mxCell id="gZ0V9REMa7KwAuEydJpr-276" style="edgeStyle=orthogonalEdgeStyle;rounded=1;orthogonalLoop=1;jettySize=auto;html=1;exitX=1;exitY=0.5;exitDx=0;exitDy=0;entryX=0;entryY=0.5;entryDx=0;entryDy=0;strokeColor=#0C343D;strokeWidth=3;align=center;verticalAlign=middle;fontFamily=Helvetica;fontSize=11;fontColor=default;labelBackgroundColor=default;elbow=horizontal;startArrow=none;startFill=0;endArrow=classic;" parent="gZ0V9REMa7KwAuEydJpr-143" source="gZ0V9REMa7KwAuEydJpr-157" target="gZ0V9REMa7KwAuEydJpr-283" edge="1">
          <mxGeometry relative="1" as="geometry">
            <mxPoint x="382.00476190476184" y="1392" as="sourcePoint" />
          </mxGeometry>
        </mxCell>
        <mxCell id="gZ0V9REMa7KwAuEydJpr-275" value="" style="edgeStyle=orthogonalEdgeStyle;rounded=1;orthogonalLoop=1;jettySize=auto;html=1;strokeColor=#0C343D;strokeWidth=3;align=center;verticalAlign=middle;fontFamily=Helvetica;fontSize=11;fontColor=default;labelBackgroundColor=default;elbow=horizontal;startArrow=none;startFill=0;endArrow=classic;exitX=1;exitY=0.5;exitDx=0;exitDy=0;" parent="gZ0V9REMa7KwAuEydJpr-143" source="gZ0V9REMa7KwAuEydJpr-157" target="gZ0V9REMa7KwAuEydJpr-280" edge="1">
          <mxGeometry relative="1" as="geometry">
            <mxPoint x="382.00476190476184" y="1392" as="sourcePoint" />
          </mxGeometry>
        </mxCell>
        <mxCell id="gZ0V9REMa7KwAuEydJpr-243" style="rounded=1;orthogonalLoop=1;jettySize=auto;html=1;exitX=1;exitY=0.5;exitDx=0;exitDy=0;strokeColor=#0C343D;strokeWidth=3;align=center;verticalAlign=middle;fontFamily=Helvetica;fontSize=11;fontColor=default;labelBackgroundColor=default;elbow=horizontal;startArrow=none;startFill=0;endArrow=classic;entryX=0;entryY=0.5;entryDx=0;entryDy=0;" parent="gZ0V9REMa7KwAuEydJpr-143" source="gZ0V9REMa7KwAuEydJpr-234" target="gZ0V9REMa7KwAuEydJpr-299" edge="1">
          <mxGeometry relative="1" as="geometry">
            <mxPoint x="520.0047619047618" y="569.8199999999999" as="sourcePoint" />
            <mxPoint x="1280" y="569.8199999999999" as="targetPoint" />
          </mxGeometry>
        </mxCell>
        <mxCell id="gZ0V9REMa7KwAuEydJpr-314" style="edgeStyle=orthogonalEdgeStyle;rounded=1;orthogonalLoop=1;jettySize=auto;html=1;exitX=1;exitY=0.5;exitDx=0;exitDy=0;strokeColor=#0C343D;strokeWidth=3;align=center;verticalAlign=middle;fontFamily=Helvetica;fontSize=11;fontColor=default;labelBackgroundColor=default;elbow=horizontal;startArrow=none;startFill=0;endArrow=classic;entryX=0;entryY=0.5;entryDx=0;entryDy=0;" parent="gZ0V9REMa7KwAuEydJpr-143" source="gZ0V9REMa7KwAuEydJpr-310" target="gZ0V9REMa7KwAuEydJpr-313" edge="1">
          <mxGeometry relative="1" as="geometry">
            <mxPoint x="562" y="305" as="sourcePoint" />
            <mxPoint x="1306" y="305" as="targetPoint" />
          </mxGeometry>
        </mxCell>
        <mxCell id="867uV8Z3yE4uk9PF_wIT-4" style="edgeStyle=orthogonalEdgeStyle;rounded=1;orthogonalLoop=1;jettySize=auto;html=1;exitX=1;exitY=0.5;exitDx=0;exitDy=0;entryX=0;entryY=0.5;entryDx=0;entryDy=0;strokeColor=#0C343D;strokeWidth=3;align=center;verticalAlign=middle;fontFamily=Helvetica;fontSize=11;fontColor=default;labelBackgroundColor=default;elbow=horizontal;startArrow=none;startFill=0;endArrow=classic;" parent="gZ0V9REMa7KwAuEydJpr-143" source="gZ0V9REMa7KwAuEydJpr-374" target="867uV8Z3yE4uk9PF_wIT-1" edge="1">
          <mxGeometry relative="1" as="geometry">
            <mxPoint x="380" y="1402" as="sourcePoint" />
            <mxPoint x="435" y="1502" as="targetPoint" />
            <Array as="points">
              <mxPoint x="400" y="1714" />
              <mxPoint x="400" y="1623" />
            </Array>
          </mxGeometry>
        </mxCell>
        <mxCell id="867uV8Z3yE4uk9PF_wIT-5" style="edgeStyle=orthogonalEdgeStyle;rounded=1;orthogonalLoop=1;jettySize=auto;html=1;exitX=1;exitY=0.5;exitDx=0;exitDy=0;entryX=0;entryY=0.5;entryDx=0;entryDy=0;strokeColor=#0C343D;strokeWidth=3;align=center;verticalAlign=middle;fontFamily=Helvetica;fontSize=11;fontColor=default;labelBackgroundColor=default;elbow=horizontal;startArrow=none;startFill=0;endArrow=classic;" parent="gZ0V9REMa7KwAuEydJpr-143" source="gZ0V9REMa7KwAuEydJpr-374" target="867uV8Z3yE4uk9PF_wIT-2" edge="1">
          <mxGeometry relative="1" as="geometry">
            <mxPoint x="370" y="1724" as="sourcePoint" />
            <mxPoint x="430" y="1655" as="targetPoint" />
            <Array as="points">
              <mxPoint x="400" y="1714" />
              <mxPoint x="400" y="1845" />
            </Array>
          </mxGeometry>
        </mxCell>
        <mxCell id="vQp27on8ZmXm1fHPbCtk-2" style="rounded=1;orthogonalLoop=1;jettySize=auto;html=1;exitX=1;exitY=0.5;exitDx=0;exitDy=0;strokeColor=#0C343D;strokeWidth=3;align=center;verticalAlign=middle;fontFamily=Helvetica;fontSize=11;fontColor=default;labelBackgroundColor=default;elbow=horizontal;startArrow=none;startFill=0;endArrow=classic;endFill=1;entryX=0;entryY=0.5;entryDx=0;entryDy=0;" edge="1" parent="gZ0V9REMa7KwAuEydJpr-143" source="867uV8Z3yE4uk9PF_wIT-2" target="vQp27on8ZmXm1fHPbCtk-1">
          <mxGeometry relative="1" as="geometry">
            <mxPoint x="370" y="1580" as="sourcePoint" />
            <mxPoint x="1303" y="1580" as="targetPoint" />
          </mxGeometry>
        </mxCell>
        <mxCell id="vQp27on8ZmXm1fHPbCtk-4" style="rounded=1;orthogonalLoop=1;jettySize=auto;html=1;exitX=1;exitY=0.5;exitDx=0;exitDy=0;strokeColor=#0C343D;strokeWidth=3;align=center;verticalAlign=middle;fontFamily=Helvetica;fontSize=11;fontColor=default;labelBackgroundColor=default;elbow=horizontal;startArrow=none;startFill=0;endArrow=classic;endFill=1;entryX=0;entryY=0.5;entryDx=0;entryDy=0;" edge="1" parent="gZ0V9REMa7KwAuEydJpr-143" source="867uV8Z3yE4uk9PF_wIT-1" target="vQp27on8ZmXm1fHPbCtk-3">
          <mxGeometry relative="1" as="geometry">
            <mxPoint x="370" y="1580" as="sourcePoint" />
            <mxPoint x="1303" y="1580" as="targetPoint" />
          </mxGeometry>
        </mxCell>
        <mxCell id="vQp27on8ZmXm1fHPbCtk-24" style="edgeStyle=orthogonalEdgeStyle;rounded=1;orthogonalLoop=1;jettySize=auto;html=1;exitX=1;exitY=0.5;exitDx=0;exitDy=0;entryX=0;entryY=0.5;entryDx=0;entryDy=0;strokeColor=#0C343D;strokeWidth=3;align=center;verticalAlign=middle;fontFamily=Helvetica;fontSize=11;fontColor=default;labelBackgroundColor=default;elbow=horizontal;startArrow=none;startFill=0;endArrow=classic;" edge="1" parent="gZ0V9REMa7KwAuEydJpr-143" source="867uV8Z3yE4uk9PF_wIT-1" target="vQp27on8ZmXm1fHPbCtk-23">
          <mxGeometry relative="1" as="geometry">
            <mxPoint x="562" y="1502" as="sourcePoint" />
            <mxPoint x="666" y="1427" as="targetPoint" />
          </mxGeometry>
        </mxCell>
        <mxCell id="vQp27on8ZmXm1fHPbCtk-25" style="edgeStyle=orthogonalEdgeStyle;rounded=1;orthogonalLoop=1;jettySize=auto;html=1;exitX=1;exitY=0.5;exitDx=0;exitDy=0;entryX=0;entryY=0.5;entryDx=0;entryDy=0;strokeColor=#0C343D;strokeWidth=3;align=center;verticalAlign=middle;fontFamily=Helvetica;fontSize=11;fontColor=default;labelBackgroundColor=default;elbow=horizontal;startArrow=none;startFill=0;endArrow=classic;" edge="1" parent="gZ0V9REMa7KwAuEydJpr-143" source="867uV8Z3yE4uk9PF_wIT-2" target="vQp27on8ZmXm1fHPbCtk-23">
          <mxGeometry relative="1" as="geometry">
            <mxPoint x="560" y="1633" as="sourcePoint" />
            <mxPoint x="1306" y="1749" as="targetPoint" />
          </mxGeometry>
        </mxCell>
      </root>
    </mxGraphModel>
  </diagram>
</mxfile>
